<svg width="35" height="35" viewBox="0 0 35 35" fill="none" xmlns="http://www.w3.org/2000/svg">
  <circle cx="17.5" cy="17.5" r="17.5" fill="#E9E9E9"/>
  <path d="M8.3346 16.75C7.32445 16.75 6.50195 17.5989 6.50195 18.6414V24.6939C6.50195 25.7364 7.32445 26.5853 8.3346 26.5853H10.5338C10.9465 26.5853 11.3262 26.4415 11.6334 26.2024V16.75H8.3346Z" stroke="#AFAFAF" stroke-width="1.4"/>
  <path d="M28.4982 18.9996C28.4982 18.4642 28.2862 17.9653 27.9182 17.5973C28.3343 17.1421 28.5463 16.5318 28.4884 15.8966C28.3842 14.7643 27.3641 13.877 26.165 13.877H20.662C20.9346 13.0494 21.3712 11.5322 21.3712 10.3135C21.3712 8.38119 19.7293 6.75 18.6985 6.75C17.7729 6.75 17.1118 7.27116 17.0834 7.29255C16.9783 7.37719 16.9168 7.50548 16.9168 7.64087V10.6618L14.351 16.22L14.2441 16.2744V25.8228C14.9693 26.1649 15.8869 26.3493 16.4713 26.3493H24.6487C25.6189 26.3493 26.4679 25.6954 26.6674 24.793C26.7699 24.3288 26.7102 23.8611 26.5062 23.4549C27.1646 23.1235 27.6073 22.4455 27.6073 21.6722C27.6073 21.3568 27.5352 21.0548 27.398 20.7814C28.0563 20.4499 28.4982 19.772 28.4982 18.9996Z" stroke="#AFAFAF" stroke-width="1.4"/>
</svg>
