<svg width="35" height="35" viewBox="0 0 35 35" fill="none" xmlns="http://www.w3.org/2000/svg">
  <circle cx="17.5" cy="17.5" r="17.5" fill="#E9E9E9"/>
  <path d="M29.7477 24.1549L25.8356 20.2422L26.6077 19.6813C26.9756 19.415 27.2494 19.0388 27.3897 18.6069C27.5301 18.175 27.5296 17.7097 27.3885 17.2781L26.8613 15.6556C26.8056 15.4852 26.8056 15.3016 26.8613 15.1313L27.3885 13.5087C27.5297 13.0771 27.5301 12.6118 27.3897 12.1799C27.2494 11.748 26.9756 11.3718 26.6077 11.1056L25.2274 10.1027C25.0822 9.9977 24.9743 9.84912 24.9193 9.67855L24.392 8.05596C24.2525 7.62382 23.9794 7.24714 23.612 6.98021C23.2446 6.71329 22.802 6.56989 22.3479 6.5707H20.6417C20.4614 6.5707 20.289 6.51468 20.1431 6.4087L18.7629 5.40586C18.3959 5.13831 17.9535 4.99414 17.4994 4.99414C17.0453 4.99414 16.6029 5.13831 16.236 5.40586L14.8557 6.40877C14.7109 6.51438 14.5363 6.57113 14.3571 6.57077H12.651C12.1969 6.56994 11.7542 6.71333 11.3868 6.98026C11.0194 7.24719 10.7463 7.62387 10.6067 8.05602L10.0795 9.67868C10.0244 9.84918 9.9165 9.99771 9.77136 10.1027L8.39111 11.1056C8.02324 11.3718 7.74941 11.748 7.60907 12.1799C7.46874 12.6118 7.46915 13.0771 7.61025 13.5087L8.1375 15.1313C8.19319 15.3016 8.19319 15.4852 8.1375 15.6555L7.61025 17.2782C7.46914 17.7098 7.46872 18.1751 7.60906 18.607C7.74939 19.0389 8.02323 19.415 8.39111 19.6813L9.16317 20.2422L5.25104 24.1549C5.17463 24.2313 5.11847 24.3256 5.08762 24.4292C5.05677 24.5327 5.0522 24.6424 5.07435 24.7482C5.09649 24.8539 5.14463 24.9525 5.21443 25.0351C5.28423 25.1176 5.37349 25.1814 5.47414 25.2208L8.61621 26.4501L9.84559 29.5922C9.88496 29.6929 9.94879 29.7821 10.0313 29.8519C10.1138 29.9217 10.2125 29.9699 10.3182 29.992C10.424 30.0141 10.5337 30.0096 10.6373 29.9787C10.7408 29.9479 10.8351 29.8917 10.9115 29.8152L15.7208 25.0066L16.236 25.3809C16.603 25.6484 17.0453 25.7925 17.4994 25.7926C17.9535 25.7925 18.3958 25.6484 18.7628 25.3809L19.2781 25.0065L24.0874 29.8152C24.1638 29.8917 24.258 29.9479 24.3616 29.9788C24.4652 30.0096 24.5749 30.0142 24.6806 29.9921C24.7864 29.9699 24.8851 29.9218 24.9676 29.852C25.0501 29.7822 25.1139 29.6929 25.1533 29.5922L26.3826 26.4501L29.5247 25.2208C29.6253 25.1814 29.7146 25.1175 29.7844 25.035C29.8541 24.9525 29.9023 24.8539 29.9244 24.7482C29.9465 24.6424 29.942 24.5328 29.9111 24.4292C29.8803 24.3256 29.8241 24.2314 29.7477 24.1549ZM10.6949 28.1918L9.72425 25.711C9.69155 25.6274 9.6419 25.5515 9.57842 25.488C9.51495 25.4245 9.43902 25.3749 9.35543 25.3422L6.87462 24.3715L10.0937 21.1519L10.6068 22.7308C10.7463 23.163 11.0195 23.5397 11.3869 23.8066C11.7543 24.0736 12.1969 24.2169 12.651 24.2161H14.3572C14.4501 24.2161 14.5408 24.2313 14.627 24.2602L10.6949 28.1918ZM17.0008 24.3283L15.6205 23.3254C15.2537 23.0578 14.8112 22.914 14.3572 22.9149H12.651C12.4718 22.9152 12.2972 22.8587 12.1522 22.7533C12.0072 22.648 11.8994 22.4993 11.8444 22.3288L11.3171 20.7062C11.1822 20.291 10.9286 19.9344 10.584 19.6691C10.5722 19.659 10.56 19.6495 10.5475 19.6404C10.5437 19.6375 10.5402 19.6343 10.5363 19.6315L9.15602 18.6286C9.01085 18.5235 8.9028 18.3751 8.84742 18.2047C8.79204 18.0342 8.79221 17.8506 8.84789 17.6803L9.37514 16.0577C9.51632 15.6262 9.51632 15.1608 9.37514 14.7293L8.84789 13.1068C8.79221 12.9364 8.79204 12.7528 8.84742 12.5823C8.90279 12.4119 9.01085 12.2634 9.15602 12.1583L10.5363 11.1555C10.9042 10.8894 11.1777 10.5129 11.3171 10.0808L11.8444 8.45822C11.8994 8.28768 12.0072 8.13903 12.1522 8.03369C12.2972 7.92835 12.4718 7.87177 12.651 7.8721H14.3572C14.8112 7.87302 15.2538 7.72922 15.6206 7.46157L17.0008 6.4588C17.1456 6.35319 17.3202 6.29628 17.4994 6.29628C17.6786 6.29628 17.8532 6.35319 17.998 6.4588L19.3783 7.4617C19.7451 7.72934 20.1876 7.87314 20.6417 7.87223H22.3479C22.5271 7.87192 22.7017 7.92852 22.8467 8.03385C22.9916 8.13919 23.0994 8.28783 23.1545 8.45835L23.6817 10.0809C23.8211 10.513 24.0946 10.8895 24.4626 11.1556L25.8429 12.1585C25.988 12.2636 26.0961 12.4121 26.1515 12.5825C26.2068 12.7529 26.2066 12.9366 26.1509 13.1069L25.6237 14.7296C25.4826 15.1611 25.4826 15.6264 25.6237 16.0579L26.1509 17.6805C26.2066 17.8508 26.2068 18.0345 26.1514 18.2049C26.0961 18.3753 25.988 18.5238 25.8428 18.6289L24.4626 19.6316C24.4578 19.6352 24.4535 19.6391 24.4487 19.6426C24.4377 19.6508 24.4268 19.6592 24.4162 19.6682C24.0708 19.9336 23.8168 20.2906 23.6817 20.7063L23.1545 22.329C23.0994 22.4995 22.9917 22.6481 22.8467 22.7535C22.7017 22.8588 22.5271 22.9154 22.3479 22.9151H20.6417C20.1876 22.9142 19.7451 23.058 19.3783 23.3256L17.9981 24.3284C17.8532 24.4339 17.6786 24.4908 17.4994 24.4907C17.3202 24.4907 17.1456 24.4338 17.0008 24.3283ZM25.6434 25.3422C25.5598 25.3749 25.4839 25.4245 25.4204 25.488C25.357 25.5515 25.3073 25.6274 25.2746 25.711L24.304 28.1918L20.3718 24.2602C20.4587 24.231 20.5499 24.2161 20.6416 24.2162H22.3478C22.8019 24.217 23.2445 24.0736 23.6119 23.8067C23.9793 23.5398 24.2524 23.1631 24.392 22.731L24.905 21.1519L28.1243 24.3716L25.6434 25.3422Z" fill="#AFAFAF"/>
  <path d="M20.5084 20.2197C20.6032 20.2197 20.6968 20.199 20.7827 20.1591C20.8686 20.1192 20.9448 20.0609 21.0059 19.9885C21.0669 19.9161 21.1115 19.8312 21.1363 19.7397C21.1612 19.6483 21.1658 19.5525 21.1498 19.4592L20.6329 16.4458L22.8223 14.3117C22.9092 14.2269 22.9707 14.1196 22.9998 14.0017C23.0289 13.8838 23.0244 13.7602 22.9869 13.6447C22.9494 13.5293 22.8803 13.4266 22.7875 13.3484C22.6947 13.2701 22.5818 13.2194 22.4617 13.2019L19.436 12.7623L18.083 10.0206C18.0292 9.91172 17.9461 9.82007 17.843 9.75599C17.7399 9.69192 17.6209 9.65796 17.4995 9.65796C17.3781 9.65796 17.2592 9.69192 17.1561 9.75599C17.053 9.82007 16.9699 9.91172 16.9161 10.0206L15.5631 12.7623L12.5374 13.2019C12.4173 13.2194 12.3045 13.2702 12.2117 13.3484C12.1189 13.4267 12.0498 13.5293 12.0123 13.6448C11.9748 13.7602 11.9703 13.8838 11.9994 14.0017C12.0285 14.1196 12.09 14.2269 12.1769 14.3117L14.3662 16.4458L13.8494 19.4592C13.8289 19.5788 13.8423 19.7018 13.888 19.8142C13.9337 19.9267 14.01 20.0241 14.1082 20.0954C14.2064 20.1668 14.3226 20.2092 14.4437 20.218C14.5648 20.2267 14.6859 20.2015 14.7933 20.145L17.4995 18.7223L20.2057 20.145C20.2991 20.1941 20.4029 20.2197 20.5084 20.2197ZM17.8022 17.4114C17.7089 17.3623 17.605 17.3367 17.4995 17.3367C17.394 17.3367 17.2901 17.3623 17.1968 17.4114L15.3547 18.3799L15.7065 16.3286C15.7244 16.2246 15.7166 16.1179 15.684 16.0175C15.6514 15.9172 15.5949 15.8263 15.5194 15.7527L14.0291 14.3L16.0887 14.0007C16.1931 13.9855 16.2922 13.9452 16.3775 13.8832C16.4629 13.8212 16.5318 13.7394 16.5785 13.6448L17.4995 11.7786L18.4205 13.6449C18.4672 13.7394 18.5362 13.8213 18.6215 13.8833C18.7068 13.9453 18.806 13.9856 18.9103 14.0007L20.9699 14.3001L19.4796 15.7527C19.4041 15.8264 19.3476 15.9173 19.315 16.0176C19.2824 16.1179 19.2747 16.2247 19.2925 16.3287L19.6443 18.3799L17.8022 17.4114Z" fill="#AFAFAF"/>
</svg>
