<svg width="30" height="31" viewBox="0 0 30 31" fill="none" xmlns="http://www.w3.org/2000/svg">
  <path d="M14.9999 19.5206C14.5188 19.5209 14.0422 19.4268 13.5971 19.2438L11.2795 22.4353C12.3797 23.0562 13.6491 23.4112 14.9999 23.4112C16.3512 23.4112 17.6208 23.056 18.7212 22.4347L16.4029 19.2437C15.9578 19.4268 15.4812 19.5209 14.9999 19.5206ZM11.2968 15.8174C11.2968 15.7247 11.3014 15.6331 11.3081 15.5421L7.55438 14.3224C7.45575 14.8146 7.40614 15.3154 7.40625 15.8174C7.40625 18.0231 8.35184 20.0119 9.85852 21.4005L12.1761 18.2092C11.6282 17.5634 11.2968 16.7286 11.2968 15.8174ZM14.121 12.2206V8.2749C11.4424 8.58504 9.18439 10.2943 8.09871 12.651L11.8518 13.8705C12.3564 13.0575 13.1667 12.4538 14.121 12.2206Z" fill="#3A3A3A"/>
  <path d="M15 17.7627C16.0744 17.7627 16.9453 16.8917 16.9453 15.8174C16.9453 14.743 16.0744 13.8721 15 13.8721C13.9256 13.8721 13.0547 14.743 13.0547 15.8174C13.0547 16.8917 13.9256 17.7627 15 17.7627Z" fill="#3A3A3A"/>
  <path d="M18.7034 15.8175C18.7034 16.7286 18.372 17.5633 17.8242 18.2091L20.1424 21.3998C21.6487 20.0113 22.594 18.0228 22.594 15.8175C22.594 15.3058 22.5428 14.806 22.4459 14.3224L18.692 15.5421C18.6988 15.6331 18.7034 15.7248 18.7034 15.8175Z" fill="#3A3A3A"/>
  <path d="M29.5701 16.6963H29.0835C28.6102 16.6963 28.203 16.3326 28.1808 15.8599C28.157 15.3552 28.5592 14.9385 29.0587 14.9385H29.5701C29.8211 14.9385 30.0205 14.7239 29.9984 14.4739C29.9617 14.0583 29.9077 13.6445 29.8366 13.2334C29.7937 12.9859 29.5454 12.8299 29.3027 12.8949L28.8311 13.0213C28.3739 13.1438 27.8865 12.8979 27.7427 12.447C27.5891 11.9657 27.8697 11.4591 28.3522 11.3298L28.8465 11.1974C29.0893 11.1324 29.2263 10.873 29.1396 10.637C28.9957 10.2455 28.8354 9.86025 28.6593 9.48214C28.5534 9.25474 28.2737 9.16878 28.0564 9.29423L27.6362 9.53687C27.2263 9.77347 26.6918 9.66214 26.4362 9.26388C26.1633 8.83867 26.3032 8.27669 26.7358 8.02697L27.1736 7.77419C27.3913 7.64851 27.4565 7.3624 27.3116 7.15697C27.0715 6.81675 26.8175 6.48655 26.5503 6.1672C26.3892 5.97466 26.0965 5.96394 25.919 6.14148L25.5801 6.48044C25.2454 6.81507 24.7003 6.84583 24.3503 6.52732C23.9766 6.18724 23.9663 5.60822 24.3195 5.25501L24.676 4.89847C24.8536 4.72093 24.8428 4.42832 24.6503 4.26718C24.331 3.99995 24.0008 3.74599 23.6606 3.50593C23.4552 3.36097 23.1691 3.42619 23.0434 3.64392L22.803 4.06029C22.5664 4.47015 22.0478 4.64095 21.6273 4.42386C21.1783 4.19207 21.0185 3.63542 21.2683 3.20289L21.5233 2.76115C21.6488 2.54388 21.5629 2.26415 21.3354 2.15822C20.9573 1.98214 20.5721 1.82192 20.1806 1.67798C19.9446 1.59126 19.6853 1.72826 19.6202 1.97107L19.4942 2.4414C19.3717 2.89849 18.915 3.19773 18.4527 3.09689C17.959 2.98925 17.6605 2.49291 17.7899 2.01039L17.9226 1.5148C17.9877 1.2721 17.8318 1.02378 17.5841 0.980893C17.173 0.909729 16.7592 0.855756 16.3436 0.819116C16.0935 0.796967 15.8789 0.996303 15.8789 1.24732V1.734C15.8789 2.20726 15.5152 2.61449 15.0425 2.63675C14.5378 2.66048 14.1211 2.2583 14.1211 1.75884V1.24732C14.1211 0.996303 13.9066 0.796967 13.6565 0.819057C13.2409 0.855752 12.8271 0.909724 12.416 0.980835C12.1684 1.02373 12.0125 1.27205 12.0775 1.51474L12.2039 1.9863C12.3263 2.44345 12.0805 2.93089 11.6296 3.07474C11.1483 3.22837 10.6417 2.94771 10.5123 2.46525L10.3799 1.97095C10.3148 1.72814 10.0554 1.59115 9.81947 1.67787C9.428 1.82178 9.04272 1.98199 8.66464 2.1581C8.43724 2.26404 8.35128 2.54376 8.47673 2.76103L8.71937 3.18126C8.95597 3.59113 8.84464 4.12562 8.44638 4.38126C8.02117 4.65419 7.45919 4.51427 7.20947 4.08167L6.95669 3.64386C6.83101 3.42613 6.5449 3.36091 6.33947 3.50587C5.99924 3.74593 5.66903 3.9999 5.3497 4.26712C5.15716 4.42826 5.14644 4.72093 5.32398 4.89841L5.66294 5.23738C5.99757 5.57201 6.02839 6.1171 5.70988 6.46714C5.3698 6.84085 4.79078 6.85111 4.43757 6.4979L4.08103 6.14136C3.90349 5.96382 3.61082 5.9746 3.44974 6.16708C3.18253 6.48643 2.92856 6.81663 2.68849 7.15685C2.54353 7.36228 2.60874 7.64839 2.82648 7.77408L3.24285 8.01443C3.65271 8.25103 3.82351 8.76958 3.60642 9.19011C3.37462 9.63912 2.81798 9.79884 2.38544 9.54912L1.94371 9.29406C1.72644 9.16861 1.44665 9.25451 1.34078 9.48197C1.16466 9.86006 1.00444 10.2454 0.860542 10.6369C0.773823 10.8728 0.910815 11.1321 1.15363 11.1972L1.62396 11.3233C2.08111 11.4457 2.38029 11.9024 2.27945 12.3648C2.17175 12.8585 1.67546 13.1569 1.193 13.0277L0.697417 12.8949C0.454721 12.8298 0.206401 12.9858 0.16351 13.2334C0.0923714 13.6444 0.0383987 14.0583 0.00173308 14.4738C-0.0203568 14.7239 0.178921 14.9385 0.429995 14.9385H0.916674C1.38994 14.9385 1.79716 15.3021 1.81937 15.7749C1.8431 16.2797 1.44091 16.6963 0.94146 16.6963H0.429936C0.178921 16.6963 -0.0204154 16.9109 0.00167449 17.161C0.038369 17.5765 0.0923415 17.9903 0.163452 18.4014C0.206342 18.649 0.454663 18.8049 0.697358 18.7399L1.16898 18.6135C1.62613 18.491 2.11357 18.7369 2.25742 19.1878C2.41099 19.6691 2.13039 20.1757 1.64792 20.305L1.15363 20.4374C0.910815 20.5025 0.773823 20.7619 0.860542 20.9978C1.00444 21.3893 1.16466 21.7746 1.34078 22.1527C1.44671 22.3801 1.72644 22.4661 1.94371 22.3406L2.36394 22.098C2.7738 21.8614 3.3083 21.9727 3.56394 22.371C3.83687 22.7962 3.69695 23.3581 3.26435 23.6079L2.82654 23.8606C2.6088 23.9863 2.54365 24.2724 2.68855 24.4779C2.92862 24.8181 3.18259 25.1483 3.4498 25.4676C3.61093 25.6602 3.90361 25.6709 4.08109 25.4934L4.42005 25.1544C4.75468 24.8198 5.29978 24.789 5.64982 25.1075C6.02353 25.4476 6.03378 26.0266 5.68058 26.3798L5.32404 26.7364C5.1465 26.9139 5.15728 27.2065 5.34976 27.3677C5.66907 27.6349 5.99926 27.8888 6.33947 28.1289C6.5449 28.2739 6.83101 28.2086 6.95669 27.9909L7.19705 27.5745C7.43365 27.1647 7.95226 26.9939 8.37279 27.211C8.82179 27.4428 8.98152 27.9994 8.73179 28.4319L8.47673 28.8737C8.35128 29.091 8.43718 29.3707 8.66464 29.4766C9.04273 29.6527 9.42801 29.8129 9.81947 29.9569C10.0554 30.0436 10.3148 29.9066 10.3799 29.6638L10.5059 29.1934C10.6284 28.7363 11.0851 28.4371 11.5475 28.5379C12.0412 28.6456 12.3395 29.1419 12.2103 29.6244L12.0775 30.12C12.0125 30.3627 12.1684 30.611 12.416 30.6539C12.8271 30.725 13.241 30.779 13.6565 30.8157C13.9066 30.8378 14.1212 30.6385 14.1212 30.3875V29.9008C14.1212 29.4275 14.4849 29.0203 14.9576 28.998C15.4623 28.9742 15.879 29.3764 15.879 29.8759V30.3875C15.879 30.6385 16.0936 30.8378 16.3436 30.8157C16.7592 30.779 17.1731 30.725 17.5841 30.6539C17.8317 30.611 17.9876 30.3627 17.9226 30.12L17.7963 29.6484C17.6738 29.1913 17.9197 28.7038 18.3705 28.56C18.8519 28.4063 19.3585 28.687 19.4878 29.1695L19.6203 29.6638C19.6853 29.9066 19.9447 30.0436 20.1807 29.9569C20.5721 29.813 20.9574 29.6527 21.3354 29.4766C21.5628 29.3707 21.6488 29.091 21.5233 28.8737L21.2807 28.4535C21.0441 28.0436 21.1554 27.5091 21.5537 27.2535C21.9789 26.9805 22.5409 27.1204 22.7906 27.553L23.0434 27.9909C23.1691 28.2086 23.4552 28.2737 23.6606 28.1288C24.0008 27.8888 24.331 27.6348 24.6504 27.3676C24.8429 27.2065 24.8536 26.9138 24.6761 26.7363L24.3371 26.3973C24.0025 26.0627 23.9717 25.5176 24.2902 25.1676C24.6303 24.7939 25.2093 24.7836 25.5625 25.1368L25.919 25.4934C26.0966 25.6709 26.3892 25.6601 26.5503 25.4676C26.8176 25.1483 27.0715 24.8181 27.3116 24.4779C27.4565 24.2724 27.3913 23.9863 27.1736 23.8606L26.7572 23.6203C26.3474 23.3837 26.1766 22.8651 26.3936 22.4446C26.6254 21.9956 27.1821 21.8359 27.6146 22.0856L28.0564 22.3407C28.2736 22.4661 28.5534 22.3802 28.6593 22.1527C28.8354 21.7746 28.9956 21.3893 29.1395 20.9979C29.2262 20.7619 29.0893 20.5026 28.8464 20.4375L28.3521 20.3051C27.8697 20.1758 27.589 19.6692 27.7426 19.1878C27.8864 18.737 28.3739 18.4911 28.831 18.6136L29.7497 18.8597C29.865 18.2987 29.948 17.7316 29.9983 17.161C30.0205 16.9109 29.8211 16.6963 29.5701 16.6963ZM15 25.169C9.84355 25.169 5.64847 20.9739 5.64847 15.8174C5.64847 10.6609 9.84355 6.46585 15 6.46585C20.1565 6.46585 24.3516 10.6609 24.3516 15.8174C24.3516 20.9739 20.1565 25.169 15 25.169Z" fill="#3A3A3A"/>
  <path d="M15.8789 8.27478V12.2205C16.8332 12.4537 17.6435 13.0574 18.1481 13.8704L21.9012 12.6509C20.8155 10.2942 18.5575 8.58492 15.8789 8.27478Z" fill="#3A3A3A"/>
</svg>
