<svg width="35" height="35" viewBox="0 0 35 35" fill="none" xmlns="http://www.w3.org/2000/svg">
  <circle cx="17.5" cy="17.5" r="17.5" fill="#E9E9E9"/>
  <path d="M17.5009 13.1637V27.6209M26.1751 17.5009H8.82657H26.1751ZM26.1751 17.5009C26.5586 17.5009 26.9263 17.3485 27.1974 17.0774C27.4685 16.8063 27.6209 16.4386 27.6209 16.0551V14.6094C27.6209 14.226 27.4685 13.8583 27.1974 13.5872C26.9263 13.316 26.5586 13.1637 26.1751 13.1637H8.82657C8.44315 13.1637 8.07542 13.316 7.8043 13.5872C7.53318 13.8583 7.38086 14.226 7.38086 14.6094V16.0551C7.38086 16.4386 7.53318 16.8063 7.8043 17.0774C8.07542 17.3485 8.44315 17.5009 8.82657 17.5009H26.1751ZM26.1751 17.5009V24.7294C26.1751 25.4963 25.8705 26.2317 25.3283 26.774C24.786 27.3162 24.0506 27.6209 23.2837 27.6209H11.718C10.9511 27.6209 10.2157 27.3162 9.67345 26.774C9.13121 26.2317 8.82657 25.4963 8.82657 24.7294V17.5009H26.1751ZM17.5009 13.1637V11.718V13.1637ZM17.5009 13.1637H12.7502C12.4248 13.1637 12.1026 13.0996 11.802 12.9751C11.5013 12.8506 11.2282 12.668 10.9981 12.4379C10.5334 11.9732 10.2723 11.343 10.2723 10.6858V10.2723C10.2723 9.50543 10.5769 8.76999 11.1192 8.22774C11.6614 7.68549 12.3969 7.38086 13.1637 7.38086C14.314 7.38086 15.4172 7.83781 16.2305 8.65118C17.0439 9.46455 17.5009 10.5677 17.5009 11.718V13.1637ZM17.5009 13.1637H22.2515C23.6206 13.1637 24.7294 12.0534 24.7294 10.6858V10.2723C24.7294 9.50543 24.4248 8.76999 23.8825 8.22774C23.3403 7.68549 22.6049 7.38086 21.838 7.38086C20.6877 7.38086 19.5846 7.83781 18.7712 8.65118C17.9578 9.46455 17.5009 10.5677 17.5009 11.718V13.1637Z" stroke="#AFAFAF" stroke-width="1.4"/>
</svg>
