<svg width="35" height="35" viewBox="0 0 35 35" fill="none" xmlns="http://www.w3.org/2000/svg">
  <circle cx="17.5" cy="17.5" r="17.5" fill="#E9E9E9"/>
  <path fill-rule="evenodd" clip-rule="evenodd" d="M27.994 10.7037C27.994 10.7037 27.994 10.7037 27.994 10.7037C28.0274 12.7505 27.9421 16.0824 27.2077 18.7874C25.7931 23.9983 22.8298 27.6649 18.5969 29.4725C18.1816 29.6499 17.754 29.8093 17.3145 29.9506L17.159 29.9999L17.0002 29.9831H16.9969L16.8414 29.9999L16.686 29.9506C16.2441 29.8086 15.8143 29.6482 15.3969 29.4697C11.1676 27.6611 8.20662 23.9955 6.79279 18.7874C6.05832 16.0823 5.97221 12.7503 6.00614 10.7035C6.00622 10.6991 6.0063 10.694 6.00638 10.6895C6.01169 10.3748 6.01984 10.0907 6.02887 9.8443C6.03189 9.74096 6.0597 9.64025 6.10958 9.55207C6.15945 9.46388 6.22968 9.39126 6.31335 9.34133C6.39702 9.29139 6.49126 9.26588 6.5868 9.26728C6.68235 9.26868 6.77591 9.29696 6.8583 9.34933C7.60445 9.81907 8.76588 10.4282 9.79295 10.4282C10.2593 10.4282 10.7356 10.3513 11.2242 10.1903C11.5312 10.0915 11.8307 9.96736 12.1202 9.81907H12.1214C13.607 9.05139 14.9716 7.69623 16.2252 6.34828C16.432 6.12777 16.7099 6.00285 17.0002 5.99988C17.2906 6.00285 17.5685 6.12777 17.7753 6.34828C19.0288 7.69623 20.3935 9.05139 21.8791 9.81907C22.1691 9.96717 22.469 10.0913 22.7763 10.1903C23.2648 10.3513 23.74 10.4282 24.2075 10.4282C25.2346 10.4282 26.396 9.82027 27.1422 9.34933C27.2245 9.29696 27.3181 9.26868 27.4137 9.26728C27.5092 9.26588 27.6034 9.29139 27.6871 9.34133C27.7708 9.39126 27.841 9.46388 27.8909 9.55207C27.9408 9.64025 27.9686 9.74096 27.9716 9.8443C27.9805 10.0906 27.9885 10.3745 27.9937 10.689C27.9938 10.6923 27.9938 10.6955 27.9939 10.6988C27.9939 10.7005 27.994 10.7021 27.994 10.7037ZM22.2805 11.7116C21.8928 11.5863 21.5153 11.4299 21.1513 11.244L21.1446 11.2405C19.5658 10.4247 18.1708 9.09358 17.0002 7.86038C15.8296 9.09358 14.4346 10.4247 12.8559 11.2405L12.5103 11.4191H12.4824C12.2334 11.5303 11.9788 11.628 11.7196 11.7117C11.0803 11.9217 10.437 12.0282 9.79295 12.0282C9.026 12.0282 8.26426 11.8137 7.60027 11.5399C7.60475 13.5091 7.74567 16.1907 8.33688 18.3681C9.75335 23.586 12.7722 26.9466 17.0002 28.3697C21.2282 26.9466 24.2471 23.586 25.6636 18.3682C26.2547 16.1912 26.395 13.5102 26.3997 11.5406C25.7356 11.8142 24.9742 12.0282 24.2075 12.0282C23.5621 12.0282 22.9197 11.9216 22.2805 11.7116Z" fill="#AFAFAF"/>
  <path fill-rule="evenodd" clip-rule="evenodd" d="M22.5659 13.4341C22.8783 13.7466 22.8783 14.2531 22.5659 14.5655L15.8712 21.2602L11.4345 16.8236C11.1221 16.5112 11.1221 16.0046 11.4345 15.6922C11.7469 15.3798 12.2535 15.3798 12.5659 15.6922L15.8712 18.9975L21.4345 13.4341C21.7469 13.1217 22.2535 13.1217 22.5659 13.4341Z" fill="#AFAFAF"/>
</svg>
