<svg width="24" height="24" viewBox="0 0 24 24" fill="none" xmlns="http://www.w3.org/2000/svg">
  <path d="M11.5245 4.28091C11.6741 3.82025 12.3259 3.82025 12.4755 4.28091L14.1329 9.38172C14.1998 9.58773 14.3918 9.72721 14.6084 9.72721H19.9717C20.4561 9.72721 20.6575 10.347 20.2656 10.6317L15.9266 13.7842C15.7514 13.9115 15.678 14.1372 15.745 14.3432L17.4023 19.444C17.552 19.9047 17.0248 20.2877 16.6329 20.003L12.2939 16.8506C12.1186 16.7232 11.8814 16.7232 11.7061 16.8506L7.3671 20.003C6.97524 20.2877 6.448 19.9047 6.59768 19.444L8.25503 14.3432C8.32197 14.1372 8.24864 13.9115 8.07339 13.7842L3.73438 10.6317C3.34253 10.347 3.54392 9.72721 4.02828 9.72721H9.39159C9.6082 9.72721 9.80018 9.58773 9.86712 9.38172L11.5245 4.28091Z" fill="#BFBFBF"/>
</svg>
