<svg width="30" height="31" viewBox="0 0 30 31" fill="none" xmlns="http://www.w3.org/2000/svg">
  <path fill-rule="evenodd" clip-rule="evenodd" d="M9.1287 2.01271L8.84907 4.3333C8.83209 4.47438 8.75976 4.60294 8.648 4.69069C8.53624 4.77844 8.3942 4.8182 8.25312 4.80122C8.11204 4.78425 7.98348 4.71192 7.89573 4.60016C7.80798 4.48839 7.76822 4.34635 7.78519 4.20527L7.9834 2.55911C6.03247 3.59602 4.33306 5.04873 3.00527 6.8146L3.91754 8.95092C3.96595 9.08014 3.96268 9.22305 3.9084 9.34993C3.85413 9.4768 3.75303 9.57786 3.62614 9.63209C3.49925 9.68633 3.35634 9.68955 3.22713 9.6411C3.09792 9.59265 2.99236 9.49626 2.93242 9.37197L2.28638 7.85919C1.11148 9.72854 0.366779 11.8357 0.106137 14.0281L1.95586 15.4156C2.06952 15.5008 2.14466 15.6277 2.16475 15.7684C2.18484 15.909 2.14824 16.0519 2.063 16.1655C1.97775 16.2792 1.85085 16.3543 1.71021 16.3744C1.56956 16.3945 1.4267 16.3579 1.31304 16.2727L0.00971354 15.295C-0.0697973 17.499 0.339621 19.6931 1.20858 21.7201L3.48899 21.9949C3.78255 22.0302 3.99254 22.2975 3.95718 22.5911C3.93989 22.7321 3.86744 22.8604 3.75569 22.9481C3.64393 23.0357 3.502 23.0755 3.36096 23.0587L1.75873 22.8654C2.79689 24.808 4.24796 26.4997 6.00993 27.8215L8.10661 26.9264C8.23583 26.878 8.37874 26.8813 8.50561 26.9355C8.63249 26.9898 8.73355 27.0909 8.78778 27.2178C8.84202 27.3447 8.84525 27.4876 8.79679 27.6168C8.74835 27.746 8.65195 27.8516 8.52766 27.9115L7.05613 28.5399C8.92034 29.7083 11.0201 30.4494 13.2047 30.71L14.5713 28.8881C14.6135 28.8318 14.6664 28.7844 14.7269 28.7486C14.7874 28.7127 14.8544 28.6891 14.9241 28.6792C14.9937 28.6692 15.0646 28.6731 15.1328 28.6906C15.2009 28.708 15.2649 28.7387 15.3212 28.7809C15.3775 28.8232 15.4249 28.876 15.4608 28.9366C15.4966 28.9971 15.5202 29.0641 15.5301 29.1337C15.5401 29.2034 15.5362 29.2743 15.5187 29.3424C15.5013 29.4106 15.4706 29.4746 15.4284 29.5309L14.4711 30.8074C16.6681 30.8876 18.8557 30.4819 20.8779 29.6193L21.1506 27.3549C21.1675 27.2139 21.2399 27.0853 21.3516 26.9976C21.4634 26.9098 21.6054 26.8701 21.7465 26.887C21.8876 26.904 22.0161 26.9763 22.1039 27.0881C22.1917 27.1999 22.2314 27.3419 22.2144 27.483L22.0227 29.0718C23.9637 28.0391 25.6556 26.5946 26.9799 24.8394L26.0821 22.7373C26.0337 22.6081 26.037 22.4652 26.0912 22.3383C26.1455 22.2115 26.2466 22.1104 26.3735 22.0562C26.5004 22.0019 26.6433 21.9987 26.7725 22.0471C26.9017 22.0956 27.0073 22.192 27.0672 22.3163L27.6999 23.7969C28.873 21.9361 29.6199 19.8388 29.8871 17.6553L28.0438 16.2727C27.9875 16.2305 27.9401 16.1776 27.9042 16.1171C27.8684 16.0565 27.8448 15.9895 27.8349 15.9199C27.8249 15.8502 27.8288 15.7793 27.8463 15.7112C27.8637 15.643 27.8944 15.579 27.9366 15.5227C27.9788 15.4664 28.0317 15.419 28.0922 15.3832C28.1528 15.3473 28.2198 15.3238 28.2894 15.3138C28.3591 15.3039 28.43 15.3077 28.4981 15.3252C28.5663 15.3427 28.6303 15.3734 28.6866 15.4156L29.9883 16.3916C30.0754 14.191 29.6748 11.9984 28.8152 9.97086L26.5106 9.69338C26.3696 9.6764 26.241 9.60407 26.1532 9.49231C26.0655 9.38055 26.0257 9.2385 26.0427 9.09743C26.0597 8.95635 26.132 8.82779 26.2438 8.74004C26.3555 8.65229 26.4976 8.61253 26.6387 8.6295L28.2714 8.8261C27.24 6.87675 25.7938 5.17714 24.0347 3.8469L21.893 4.76185C21.7626 4.81629 21.616 4.817 21.4851 4.76385C21.3542 4.71069 21.2496 4.60797 21.1941 4.47805C21.1385 4.34812 21.1366 4.20152 21.1886 4.07017C21.2407 3.93881 21.3425 3.83334 21.472 3.77672L22.9939 3.1264C21.1279 1.94674 19.0232 1.19621 16.8319 0.929015L15.4284 2.80017C15.3431 2.91383 15.2162 2.98897 15.0756 3.00906C14.9349 3.02915 14.7921 2.99255 14.6784 2.9073C14.5647 2.82206 14.4896 2.69516 14.4695 2.55451C14.4494 2.41387 14.486 2.271 14.5713 2.15734L15.5676 0.828842C13.3602 0.742316 11.161 1.14666 9.1287 2.01271ZM14.9998 6.17499C9.67831 6.17499 5.35747 10.4958 5.35747 15.8173C5.35747 21.1388 9.67831 25.4597 14.9998 25.4597C20.3213 25.4597 24.6422 21.1388 24.6422 15.8173C24.6422 10.4958 20.3213 6.17499 14.9998 6.17499Z" fill="#BD0808"/>
  <path fill-rule="evenodd" clip-rule="evenodd" d="M11.6066 22.5064C12.626 23.0244 13.7788 23.3168 14.9996 23.3168C16.2204 23.3168 17.3732 23.0244 18.3926 22.5064C17.5645 21.068 16.4336 19.9093 14.9996 19.0314C13.5656 19.9093 12.4347 21.068 11.6066 22.5064ZM22.4097 14.6575C20.7861 15.0003 19.3349 15.7181 18.0562 16.8104C18.4483 18.4448 19.1999 19.8777 20.3115 21.1093C21.006 20.4142 21.5567 19.5891 21.9321 18.681C22.3075 17.773 22.5002 16.7998 22.4992 15.8172C22.4992 15.423 22.4687 15.0351 22.4097 14.6575ZM7.58946 14.6575C7.53053 15.0351 7.5 15.423 7.5 15.8172C7.5 17.8818 8.33621 19.7529 9.68774 21.1093C10.7993 19.8777 11.5509 18.4448 11.943 16.8104C10.6643 15.7181 9.21312 15.0003 7.58946 14.6575ZM13.8131 8.41138C11.4148 8.79279 9.39419 10.3131 8.32335 12.4001C9.83827 13.0772 11.4341 13.3493 13.1102 13.217C13.7541 11.6635 13.9882 10.0618 13.8131 8.41138ZM16.1861 8.41138C16.011 10.0618 16.2451 11.6635 16.889 13.217C18.5651 13.3493 20.1609 13.0772 21.6759 12.4001C20.605 10.3136 18.5844 8.79332 16.1861 8.41138ZM14.9996 14.1984C14.5775 14.2093 14.1763 14.3846 13.8815 14.687C13.5868 14.9894 13.4219 15.395 13.4219 15.8172C13.4219 16.2395 13.5868 16.6451 13.8815 16.9475C14.1763 17.2499 14.5775 17.4252 14.9996 17.4361C15.8931 17.4361 16.6184 16.7102 16.6184 15.8172C16.6184 14.9243 15.8931 14.1984 14.9996 14.1984ZM14.9996 15.2698C15.073 15.2675 15.1461 15.28 15.2145 15.3065C15.2829 15.3331 15.3454 15.3731 15.3981 15.4242C15.4507 15.4753 15.4926 15.5365 15.5212 15.6041C15.5498 15.6717 15.5645 15.7444 15.5645 15.8178C15.5644 15.8912 15.5497 15.9638 15.521 16.0314C15.4923 16.099 15.4504 16.1601 15.3977 16.2112C15.3449 16.2623 15.2825 16.3022 15.214 16.3287C15.1455 16.3551 15.0724 16.3676 14.9991 16.3652C14.8568 16.3608 14.7218 16.3011 14.6227 16.1989C14.5236 16.0967 14.4682 15.9599 14.4682 15.8175C14.4682 15.6751 14.5236 15.5383 14.6227 15.4361C14.7218 15.3339 14.8573 15.2742 14.9996 15.2698Z" fill="#BD0808"/>
</svg>
